<svg width="88" height="88" viewBox="0 0 88 88" fill="none" xmlns="http://www.w3.org/2000/svg">
<path fill-rule="evenodd" clip-rule="evenodd" d="M41.4311 19.8466C41.3531 19.9452 41.3123 20.0734 41.3269 20.2087C41.3566 20.4832 41.6034 20.6831 41.8782 20.6551L44.58 20.3794V23.6759H40.9187L37.7967 20.9413C36.5877 23.0756 35.5812 27.4953 35 31C34.9179 31.4953 34.6937 31.8799 34.4837 32.2403C34.2295 32.6765 33.9959 33.0772 34.06 33.5955C34.5513 37.5731 40.1851 38.7271 42.9659 38.7768V43C43.9578 42.2056 45.0845 41.4311 46.238 40.6382L46.2381 40.6382L46.2381 40.6381L46.2382 40.6381L46.2382 40.6381C48.5598 39.0423 50.9898 37.3719 52.6474 35.3148L48.9178 34.6932C48.6454 34.6478 48.4614 34.3902 48.5068 34.1178C48.5522 33.8454 48.8098 33.6614 49.0822 33.7068L53.3052 34.4106C53.5294 34.0474 53.6894 33.6047 53.7989 33.1H49.5C49.2238 33.1 49 32.8762 49 32.6C49 32.3239 49.2238 32.1 49.5 32.1H53.9471C53.988 31.6527 54.0033 31.1745 53.9994 30.6737L49.0822 31.4932C48.8098 31.5386 48.5522 31.3546 48.5068 31.0822C48.4614 30.8098 48.6454 30.5522 48.9178 30.5068L53.9691 29.6649C53.9074 28.4196 53.7624 27.0782 53.6188 25.7507L53.6188 25.7507V25.7506V25.7506L53.6188 25.7506C53.4346 24.0473 53.2528 22.3668 53.2528 20.9413L49.1588 23.6759H45.58V20.3977L48.1033 20.6551C48.378 20.6832 48.6248 20.4833 48.6545 20.2088C48.6692 20.0734 48.6283 19.9452 48.5502 19.8466C48.6423 19.7452 48.6922 19.6062 48.6762 19.4588C48.6465 19.1843 48.3997 18.9844 48.125 19.0125L45.5095 19.2794C45.4222 19.1333 45.2625 19.0355 45.08 19.0355C44.8904 19.0355 44.7254 19.1411 44.6406 19.2967L41.8565 19.0126C41.5817 18.9845 41.3349 19.1844 41.3052 19.4589C41.2893 19.6063 41.3391 19.7452 41.4311 19.8466ZM38.7544 30.8139C38.6007 31.626 37.974 32.2062 37.3544 32.1099C36.7349 32.0135 36.3572 31.2771 36.5109 30.465C36.6645 29.6529 37.2913 29.0727 37.9108 29.169C38.5304 29.2654 38.908 30.0018 38.7544 30.8139ZM41.8151 32.1099C42.4347 32.2062 43.0614 31.626 43.2151 30.8139C43.3687 30.0018 42.9911 29.2654 42.3715 29.169C41.752 29.0727 41.1252 29.6529 40.9716 30.465C40.8179 31.2771 41.1956 32.0135 41.8151 32.1099Z" fill="#C0E085"/>
<path d="M20.52 63C20.4027 63 20.3067 62.9627 20.232 62.888C20.1573 62.8133 20.12 62.7173 20.12 62.6V52.2C20.12 52.0827 20.1573 51.9867 20.232 51.912C20.3067 51.8373 20.4027 51.8 20.52 51.8H27.864C27.9813 51.8 28.0773 51.8373 28.152 51.912C28.2373 51.9867 28.28 52.0827 28.28 52.2V53.816C28.28 53.9333 28.2373 54.0293 28.152 54.104C28.0773 54.1787 27.9813 54.216 27.864 54.216H22.936V56.568H27.544C27.6613 56.568 27.7573 56.6107 27.832 56.696C27.9173 56.7707 27.96 56.8667 27.96 56.984V58.584C27.96 58.6907 27.9173 58.7867 27.832 58.872C27.7573 58.9467 27.6613 58.984 27.544 58.984H22.936V62.6C22.936 62.7173 22.8987 62.8133 22.824 62.888C22.7493 62.9627 22.6533 63 22.536 63H20.52ZM30.219 63C30.1017 63 30.0057 62.9627 29.931 62.888C29.8563 62.8133 29.819 62.7173 29.819 62.6V52.04C29.819 51.9227 29.8563 51.8267 29.931 51.752C30.0057 51.6773 30.1017 51.64 30.219 51.64H32.107C32.2243 51.64 32.3203 51.6773 32.395 51.752C32.4697 51.8267 32.507 51.9227 32.507 52.04V62.6C32.507 62.7173 32.4697 62.8133 32.395 62.888C32.3203 62.9627 32.2243 63 32.107 63H30.219ZM35.9491 66.04C35.8531 66.04 35.7731 66.008 35.7091 65.944C35.6451 65.88 35.6131 65.8 35.6131 65.704C35.6131 65.6827 35.6131 65.6507 35.6131 65.608C35.6238 65.576 35.6398 65.5387 35.6611 65.496L36.9091 62.488L33.8371 55.224C33.8051 55.1493 33.7891 55.0853 33.7891 55.032C33.8105 54.936 33.8531 54.856 33.9171 54.792C33.9811 54.7173 34.0611 54.68 34.1571 54.68H35.9811C36.1198 54.68 36.2211 54.7173 36.2851 54.792C36.3598 54.856 36.4078 54.9307 36.4291 55.016L38.2691 59.672L40.1411 55.016C40.1838 54.9307 40.2371 54.856 40.3011 54.792C40.3758 54.7173 40.4825 54.68 40.6211 54.68H42.4131C42.5091 54.68 42.5891 54.7173 42.6531 54.792C42.7278 54.856 42.7651 54.9307 42.7651 55.016C42.7651 55.0693 42.7491 55.1387 42.7171 55.224L38.1891 65.704C38.1571 65.7893 38.1038 65.864 38.0291 65.928C37.9545 66.0027 37.8478 66.04 37.7091 66.04H35.9491ZM47.4555 63.16C46.6662 63.16 45.9675 63.016 45.3595 62.728C44.7515 62.44 44.2662 62.024 43.9035 61.48C43.5515 60.9253 43.3595 60.264 43.3275 59.496C43.3168 59.3253 43.3115 59.112 43.3115 58.856C43.3115 58.5893 43.3168 58.3707 43.3275 58.2C43.3595 57.4213 43.5515 56.76 43.9035 56.216C44.2555 55.6613 44.7355 55.24 45.3435 54.952C45.9622 54.664 46.6662 54.52 47.4555 54.52C48.1915 54.52 48.8208 54.6267 49.3435 54.84C49.8662 55.0427 50.2928 55.2987 50.6235 55.608C50.9542 55.9173 51.1995 56.2373 51.3595 56.568C51.5302 56.888 51.6208 57.1707 51.6315 57.416C51.6422 57.5227 51.6048 57.6187 51.5195 57.704C51.4342 57.7787 51.3382 57.816 51.2315 57.816H49.1995C49.0822 57.816 48.9915 57.7893 48.9275 57.736C48.8635 57.6827 48.8048 57.6027 48.7515 57.496C48.6235 57.1653 48.4582 56.9307 48.2555 56.792C48.0635 56.6533 47.8128 56.584 47.5035 56.584C47.0768 56.584 46.7462 56.7227 46.5115 57C46.2875 57.2773 46.1648 57.704 46.1435 58.28C46.1328 58.7067 46.1328 59.0853 46.1435 59.416C46.1648 60.0027 46.2875 60.4293 46.5115 60.696C46.7462 60.9627 47.0768 61.096 47.5035 61.096C47.8342 61.096 48.0955 61.0267 48.2875 60.888C48.4795 60.7493 48.6342 60.5147 48.7515 60.184C48.8048 60.0773 48.8635 59.9973 48.9275 59.944C48.9915 59.8907 49.0822 59.864 49.1995 59.864H51.2315C51.3382 59.864 51.4342 59.9067 51.5195 59.992C51.6048 60.0667 51.6422 60.1573 51.6315 60.264C51.6208 60.4453 51.5675 60.6587 51.4715 60.904C51.3755 61.1387 51.2262 61.3893 51.0235 61.656C50.8208 61.9227 50.5542 62.1733 50.2235 62.408C49.9035 62.632 49.5142 62.8133 49.0555 62.952C48.5968 63.0907 48.0635 63.16 47.4555 63.16ZM55.565 63.16C54.989 63.16 54.4717 63.0533 54.013 62.84C53.565 62.616 53.2077 62.3173 52.941 61.944C52.6743 61.5707 52.541 61.1493 52.541 60.68C52.541 59.9227 52.8503 59.3253 53.469 58.888C54.0877 58.44 54.909 58.136 55.933 57.976L57.933 57.672V57.448C57.933 57.064 57.853 56.7707 57.693 56.568C57.533 56.3653 57.2397 56.264 56.813 56.264C56.5143 56.264 56.269 56.3227 56.077 56.44C55.8957 56.5573 55.7517 56.7173 55.645 56.92C55.549 57.0587 55.4157 57.128 55.245 57.128H53.453C53.3357 57.128 53.245 57.096 53.181 57.032C53.117 56.9573 53.0903 56.872 53.101 56.776C53.101 56.584 53.1703 56.3653 53.309 56.12C53.4583 55.864 53.6823 55.6133 53.981 55.368C54.2797 55.1227 54.6637 54.92 55.133 54.76C55.6023 54.6 56.1677 54.52 56.829 54.52C57.5223 54.52 58.1143 54.6 58.605 54.76C59.0957 54.92 59.4903 55.144 59.789 55.432C60.0983 55.72 60.3277 56.0613 60.477 56.456C60.6263 56.84 60.701 57.2667 60.701 57.736V62.6C60.701 62.7173 60.6583 62.8133 60.573 62.888C60.4983 62.9627 60.4077 63 60.301 63H58.445C58.3277 63 58.2317 62.9627 58.157 62.888C58.0823 62.8133 58.045 62.7173 58.045 62.6V62.04C57.9063 62.2427 57.7197 62.4293 57.485 62.6C57.2503 62.7707 56.973 62.904 56.653 63C56.3437 63.1067 55.981 63.16 55.565 63.16ZM56.317 61.336C56.6263 61.336 56.9037 61.272 57.149 61.144C57.405 61.0053 57.6023 60.7973 57.741 60.52C57.8903 60.232 57.965 59.8747 57.965 59.448V59.224L56.605 59.464C56.1037 59.5493 55.7357 59.6827 55.501 59.864C55.277 60.0347 55.165 60.2373 55.165 60.472C55.165 60.6533 55.2183 60.808 55.325 60.936C55.4317 61.064 55.5703 61.1653 55.741 61.24C55.9117 61.304 56.1037 61.336 56.317 61.336ZM66.7 63C66.0173 63 65.4253 62.8933 64.924 62.68C64.4333 62.456 64.0547 62.1147 63.788 61.656C63.5213 61.1867 63.388 60.584 63.388 59.848V56.776H62.14C62.0227 56.776 61.9213 56.7387 61.836 56.664C61.7613 56.5893 61.724 56.4933 61.724 56.376V55.08C61.724 54.9627 61.7613 54.8667 61.836 54.792C61.9213 54.7173 62.0227 54.68 62.14 54.68H63.388V52.04C63.388 51.9227 63.4253 51.8267 63.5 51.752C63.5853 51.6773 63.6813 51.64 63.788 51.64H65.644C65.7613 51.64 65.8573 51.6773 65.932 51.752C66.0067 51.8267 66.044 51.9227 66.044 52.04V54.68H68.044C68.1613 54.68 68.2573 54.7173 68.332 54.792C68.4067 54.8667 68.444 54.9627 68.444 55.08V56.376C68.444 56.4933 68.4067 56.5893 68.332 56.664C68.2573 56.7387 68.1613 56.776 68.044 56.776H66.044V59.624C66.044 59.9867 66.1133 60.2747 66.252 60.488C66.3907 60.7013 66.6253 60.808 66.956 60.808H68.188C68.3053 60.808 68.4013 60.8453 68.476 60.92C68.5507 60.9947 68.588 61.0907 68.588 61.208V62.6C68.588 62.7173 68.5507 62.8133 68.476 62.888C68.4013 62.9627 68.3053 63 68.188 63H66.7Z" fill="#C0E085"/>
</svg>
