<svg width="88" height="40" viewBox="0 0 88 40" fill="none" xmlns="http://www.w3.org/2000/svg">
<path fill-rule="evenodd" clip-rule="evenodd" d="M14.4311 8.84661C14.3531 8.9452 14.3123 9.0734 14.3269 9.20871C14.3566 9.48325 14.6034 9.68308 14.8782 9.65505L17.58 9.37937V12.6759H13.9187L10.7967 9.94133C9.58769 12.0756 8.58116 16.4953 8 20C7.91788 20.4953 7.69371 20.8799 7.48367 21.2403C7.22946 21.6765 6.99593 22.0772 7.05996 22.5955C7.5513 26.5731 13.1851 27.7271 15.9659 27.7768V32C16.9578 31.2056 18.0845 30.4311 19.238 29.6382L19.2381 29.6382L19.2381 29.6381L19.2382 29.6381L19.2382 29.6381C21.5598 28.0423 23.9898 26.3719 25.6474 24.3148L21.9178 23.6932C21.6454 23.6478 21.4614 23.3902 21.5068 23.1178C21.5522 22.8454 21.8098 22.6614 22.0822 22.7068L26.3052 23.4106C26.5294 23.0474 26.6894 22.6047 26.7989 22.1H22.5C22.2238 22.1 22 21.8762 22 21.6C22 21.3239 22.2238 21.1 22.5 21.1H26.9471C26.988 20.6527 27.0033 20.1745 26.9994 19.6737L22.0822 20.4932C21.8098 20.5386 21.5522 20.3546 21.5068 20.0822C21.4614 19.8098 21.6454 19.5522 21.9178 19.5068L26.9691 18.6649C26.9074 17.4196 26.7624 16.0782 26.6188 14.7507L26.6188 14.7507V14.7506V14.7506L26.6188 14.7506C26.4346 13.0473 26.2528 11.3668 26.2528 9.94133L22.1588 12.6759H18.58V9.39768L21.1033 9.65515C21.378 9.68318 21.6248 9.48334 21.6545 9.20881C21.6692 9.07345 21.6283 8.9452 21.5502 8.8466C21.6423 8.74517 21.6922 8.60621 21.6762 8.45882C21.6465 8.18428 21.3997 7.98445 21.125 8.01248L18.5095 8.27936C18.4222 8.13332 18.2625 8.03553 18.08 8.03553C17.8904 8.03553 17.7254 8.14109 17.6406 8.29666L14.8565 8.01257C14.5817 7.98454 14.3349 8.18438 14.3052 8.45891C14.2893 8.60626 14.3391 8.74518 14.4311 8.84661ZM11.7544 19.8139C11.6007 20.626 10.974 21.2062 10.3544 21.1099C9.7349 21.0135 9.35722 20.2771 9.51086 19.465C9.66451 18.6529 10.2913 18.0727 10.9108 18.169C11.5304 18.2654 11.908 19.0018 11.7544 19.8139ZM14.8151 21.1099C15.4347 21.2062 16.0614 20.626 16.2151 19.8139C16.3687 19.0018 15.9911 18.2654 15.3715 18.169C14.752 18.0727 14.1252 18.6529 13.9716 19.465C13.8179 20.2771 14.1956 21.0135 14.8151 21.1099Z" fill="#C0E085"/>
<path d="M34.52 25C34.4027 25 34.3067 24.9627 34.232 24.888C34.1573 24.8133 34.12 24.7173 34.12 24.6V14.2C34.12 14.0827 34.1573 13.9867 34.232 13.912C34.3067 13.8373 34.4027 13.8 34.52 13.8H41.864C41.9813 13.8 42.0773 13.8373 42.152 13.912C42.2373 13.9867 42.28 14.0827 42.28 14.2V15.816C42.28 15.9333 42.2373 16.0293 42.152 16.104C42.0773 16.1787 41.9813 16.216 41.864 16.216H36.936V18.568H41.544C41.6613 18.568 41.7573 18.6107 41.832 18.696C41.9173 18.7707 41.96 18.8667 41.96 18.984V20.584C41.96 20.6907 41.9173 20.7867 41.832 20.872C41.7573 20.9467 41.6613 20.984 41.544 20.984H36.936V24.6C36.936 24.7173 36.8987 24.8133 36.824 24.888C36.7493 24.9627 36.6533 25 36.536 25H34.52ZM44.219 25C44.1017 25 44.0057 24.9627 43.931 24.888C43.8563 24.8133 43.819 24.7173 43.819 24.6V14.04C43.819 13.9227 43.8563 13.8267 43.931 13.752C44.0057 13.6773 44.1017 13.64 44.219 13.64H46.107C46.2243 13.64 46.3203 13.6773 46.395 13.752C46.4697 13.8267 46.507 13.9227 46.507 14.04V24.6C46.507 24.7173 46.4697 24.8133 46.395 24.888C46.3203 24.9627 46.2243 25 46.107 25H44.219ZM49.9491 28.04C49.8531 28.04 49.7731 28.008 49.7091 27.944C49.6451 27.88 49.6131 27.8 49.6131 27.704C49.6131 27.6827 49.6131 27.6507 49.6131 27.608C49.6238 27.576 49.6398 27.5387 49.6611 27.496L50.9091 24.488L47.8371 17.224C47.8051 17.1493 47.7891 17.0853 47.7891 17.032C47.8105 16.936 47.8531 16.856 47.9171 16.792C47.9811 16.7173 48.0611 16.68 48.1571 16.68H49.9811C50.1198 16.68 50.2211 16.7173 50.2851 16.792C50.3598 16.856 50.4078 16.9307 50.4291 17.016L52.2691 21.672L54.1411 17.016C54.1838 16.9307 54.2371 16.856 54.3011 16.792C54.3758 16.7173 54.4825 16.68 54.6211 16.68H56.4131C56.5091 16.68 56.5891 16.7173 56.6531 16.792C56.7278 16.856 56.7651 16.9307 56.7651 17.016C56.7651 17.0693 56.7491 17.1387 56.7171 17.224L52.1891 27.704C52.1571 27.7893 52.1038 27.864 52.0291 27.928C51.9545 28.0027 51.8478 28.04 51.7091 28.04H49.9491ZM61.4555 25.16C60.6662 25.16 59.9675 25.016 59.3595 24.728C58.7515 24.44 58.2662 24.024 57.9035 23.48C57.5515 22.9253 57.3595 22.264 57.3275 21.496C57.3168 21.3253 57.3115 21.112 57.3115 20.856C57.3115 20.5893 57.3168 20.3707 57.3275 20.2C57.3595 19.4213 57.5515 18.76 57.9035 18.216C58.2555 17.6613 58.7355 17.24 59.3435 16.952C59.9622 16.664 60.6662 16.52 61.4555 16.52C62.1915 16.52 62.8208 16.6267 63.3435 16.84C63.8662 17.0427 64.2928 17.2987 64.6235 17.608C64.9542 17.9173 65.1995 18.2373 65.3595 18.568C65.5302 18.888 65.6208 19.1707 65.6315 19.416C65.6422 19.5227 65.6048 19.6187 65.5195 19.704C65.4342 19.7787 65.3382 19.816 65.2315 19.816H63.1995C63.0822 19.816 62.9915 19.7893 62.9275 19.736C62.8635 19.6827 62.8048 19.6027 62.7515 19.496C62.6235 19.1653 62.4582 18.9307 62.2555 18.792C62.0635 18.6533 61.8128 18.584 61.5035 18.584C61.0768 18.584 60.7462 18.7227 60.5115 19C60.2875 19.2773 60.1648 19.704 60.1435 20.28C60.1328 20.7067 60.1328 21.0853 60.1435 21.416C60.1648 22.0027 60.2875 22.4293 60.5115 22.696C60.7462 22.9627 61.0768 23.096 61.5035 23.096C61.8342 23.096 62.0955 23.0267 62.2875 22.888C62.4795 22.7493 62.6342 22.5147 62.7515 22.184C62.8048 22.0773 62.8635 21.9973 62.9275 21.944C62.9915 21.8907 63.0822 21.864 63.1995 21.864H65.2315C65.3382 21.864 65.4342 21.9067 65.5195 21.992C65.6048 22.0667 65.6422 22.1573 65.6315 22.264C65.6208 22.4453 65.5675 22.6587 65.4715 22.904C65.3755 23.1387 65.2262 23.3893 65.0235 23.656C64.8208 23.9227 64.5542 24.1733 64.2235 24.408C63.9035 24.632 63.5142 24.8133 63.0555 24.952C62.5968 25.0907 62.0635 25.16 61.4555 25.16ZM69.565 25.16C68.989 25.16 68.4717 25.0533 68.013 24.84C67.565 24.616 67.2077 24.3173 66.941 23.944C66.6743 23.5707 66.541 23.1493 66.541 22.68C66.541 21.9227 66.8503 21.3253 67.469 20.888C68.0877 20.44 68.909 20.136 69.933 19.976L71.933 19.672V19.448C71.933 19.064 71.853 18.7707 71.693 18.568C71.533 18.3653 71.2397 18.264 70.813 18.264C70.5143 18.264 70.269 18.3227 70.077 18.44C69.8957 18.5573 69.7517 18.7173 69.645 18.92C69.549 19.0587 69.4157 19.128 69.245 19.128H67.453C67.3357 19.128 67.245 19.096 67.181 19.032C67.117 18.9573 67.0903 18.872 67.101 18.776C67.101 18.584 67.1703 18.3653 67.309 18.12C67.4583 17.864 67.6823 17.6133 67.981 17.368C68.2797 17.1227 68.6637 16.92 69.133 16.76C69.6023 16.6 70.1677 16.52 70.829 16.52C71.5223 16.52 72.1143 16.6 72.605 16.76C73.0957 16.92 73.4903 17.144 73.789 17.432C74.0983 17.72 74.3277 18.0613 74.477 18.456C74.6263 18.84 74.701 19.2667 74.701 19.736V24.6C74.701 24.7173 74.6583 24.8133 74.573 24.888C74.4983 24.9627 74.4077 25 74.301 25H72.445C72.3277 25 72.2317 24.9627 72.157 24.888C72.0823 24.8133 72.045 24.7173 72.045 24.6V24.04C71.9063 24.2427 71.7197 24.4293 71.485 24.6C71.2503 24.7707 70.973 24.904 70.653 25C70.3437 25.1067 69.981 25.16 69.565 25.16ZM70.317 23.336C70.6263 23.336 70.9037 23.272 71.149 23.144C71.405 23.0053 71.6023 22.7973 71.741 22.52C71.8903 22.232 71.965 21.8747 71.965 21.448V21.224L70.605 21.464C70.1037 21.5493 69.7357 21.6827 69.501 21.864C69.277 22.0347 69.165 22.2373 69.165 22.472C69.165 22.6533 69.2183 22.808 69.325 22.936C69.4317 23.064 69.5703 23.1653 69.741 23.24C69.9117 23.304 70.1037 23.336 70.317 23.336ZM80.7 25C80.0173 25 79.4253 24.8933 78.924 24.68C78.4333 24.456 78.0547 24.1147 77.788 23.656C77.5213 23.1867 77.388 22.584 77.388 21.848V18.776H76.14C76.0227 18.776 75.9213 18.7387 75.836 18.664C75.7613 18.5893 75.724 18.4933 75.724 18.376V17.08C75.724 16.9627 75.7613 16.8667 75.836 16.792C75.9213 16.7173 76.0227 16.68 76.14 16.68H77.388V14.04C77.388 13.9227 77.4253 13.8267 77.5 13.752C77.5853 13.6773 77.6813 13.64 77.788 13.64H79.644C79.7613 13.64 79.8573 13.6773 79.932 13.752C80.0067 13.8267 80.044 13.9227 80.044 14.04V16.68H82.044C82.1613 16.68 82.2573 16.7173 82.332 16.792C82.4067 16.8667 82.444 16.9627 82.444 17.08V18.376C82.444 18.4933 82.4067 18.5893 82.332 18.664C82.2573 18.7387 82.1613 18.776 82.044 18.776H80.044V21.624C80.044 21.9867 80.1133 22.2747 80.252 22.488C80.3907 22.7013 80.6253 22.808 80.956 22.808H82.188C82.3053 22.808 82.4013 22.8453 82.476 22.92C82.5507 22.9947 82.588 23.0907 82.588 23.208V24.6C82.588 24.7173 82.5507 24.8133 82.476 24.888C82.4013 24.9627 82.3053 25 82.188 25H80.7Z" fill="#C0E085"/>
</svg>
