<svg width="512" height="512" viewBox="0 0 512 512" fill="none" xmlns="http://www.w3.org/2000/svg">
<g clip-path="url(#clip0_19_1713)">
<rect width="512" height="512" fill="white"/>
<rect width="512" height="512" fill="white"/>
<path fill-rule="evenodd" clip-rule="evenodd" d="M200.686 88.7133C199.423 90.3081 198.763 92.3818 199 94.5706C199.481 99.0115 203.473 102.244 207.917 101.791L251.622 97.3312V150.656H192.396L141.894 106.421C122.337 140.945 106.055 212.438 96.6545 269.132C95.326 277.143 91.7 283.365 88.3023 289.194C84.1901 296.25 80.4126 302.732 81.4484 311.117C89.3963 375.458 180.529 394.125 225.512 394.929V463.245C241.558 450.394 259.784 437.865 278.444 425.039L278.445 425.038C318.531 397.484 360.616 368.554 387.37 332.111L323.037 321.388C322.764 321.343 322.58 321.085 322.626 320.813C322.671 320.541 322.929 320.357 323.201 320.402L388.03 331.207C389.364 329.365 390.66 327.504 391.914 325.623C397.12 317.813 400.333 307.53 402.125 295.513H331.207C330.931 295.513 330.707 295.29 330.707 295.013C330.707 294.737 330.931 294.513 331.207 294.513H402.27C403.891 283.059 404.255 270.074 403.846 256.184L323.201 269.625C322.928 269.67 322.671 269.486 322.625 269.214C322.58 268.941 322.764 268.684 323.036 268.638L403.815 255.175C403.103 232.938 400.453 208.435 397.834 184.218V184.218C394.854 156.664 391.914 129.481 391.914 106.421L325.689 150.656H267.798V97.6275L308.615 101.792C313.059 102.246 317.051 99.0132 317.532 94.5723C317.769 92.3827 317.108 90.3082 315.844 88.7132C317.334 87.0723 318.141 84.8245 317.883 82.4403C317.402 77.9993 313.41 74.7668 308.966 75.2202L266.657 79.5372C265.245 77.1749 262.662 75.5931 259.71 75.5931C256.642 75.5931 253.974 77.3008 252.603 79.8173L207.566 75.2219C203.122 74.7685 199.13 78.001 198.649 82.442C198.391 84.8254 199.197 87.0726 200.686 88.7133ZM157.385 266.121C154.9 279.257 144.761 288.643 134.739 287.085C124.718 285.526 118.608 273.614 121.094 260.478C123.579 247.341 133.718 237.955 143.739 239.514C153.761 241.072 159.87 252.984 157.385 266.121ZM206.896 287.085C216.917 288.643 227.056 279.257 229.542 266.121C232.027 252.984 225.918 241.072 215.896 239.514C205.874 237.955 195.736 247.341 193.25 260.478C190.765 273.614 196.874 285.526 206.896 287.085Z" fill="#98C354"/>
</g>
<defs>
<clipPath id="clip0_19_1713">
<rect width="512" height="512" fill="white"/>
</clipPath>
</defs>
</svg>
