<svg width="24" height="24" viewBox="0 0 24 24" fill="none" xmlns="http://www.w3.org/2000/svg">
<path d="M4 20C4 19.4477 4.44772 19 5 19H19C19.5523 19 20 19.4477 20 20C20 20.5523 19.5523 21 19 21H5C4.44772 21 4 20.5523 4 20ZM9 16C9 15.4477 9.44772 15 10 15H19C19.5523 15 20 15.4477 20 16C20 16.5523 19.5523 17 19 17H10C9.44771 17 9 16.5523 9 16ZM4 12C4 11.4477 4.44772 11 5 11H19C19.5523 11 20 11.4477 20 12C20 12.5523 19.5523 13 19 13H5C4.44772 13 4 12.5523 4 12ZM4 4C4 3.44772 4.44772 3 5 3H19C19.5523 3 20 3.44772 20 4C20 4.55228 19.5523 5 19 5H5C4.44772 5 4 4.55228 4 4ZM9 8C9 7.44772 9.44772 7 10 7H19C19.5523 7 20 7.44772 20 8C20 8.55228 19.5523 9 19 9H10C9.44771 9 9 8.55228 9 8Z" fill="#1E1E1E"/>
</svg>
