<svg width="24" height="24" viewBox="0 0 24 24" fill="none" xmlns="http://www.w3.org/2000/svg">
<path d="M19.2 3H4.8C3.8073 3 3 3.897 3 5V19C3 20.103 3.8073 21 4.8 21H19.2C20.1927 21 21 20.103 21 19V5C21 3.897 20.1927 3 19.2 3ZM4.8 19V5H19.2L19.2018 19H4.8Z" fill="#1E1E1E"/>
<path d="M7 8C7 7.44772 7.44772 7 8 7H16C16.5523 7 17 7.44772 17 8C17 8.55228 16.5523 9 16 9H8C7.44772 9 7 8.55228 7 8ZM7 12C7 11.4477 7.44772 11 8 11H16C16.5523 11 17 11.4477 17 12C17 12.5523 16.5523 13 16 13H8C7.44772 13 7 12.5523 7 12ZM7 16C7 15.4477 7.44772 15 8 15H11C11.5523 15 12 15.4477 12 16C12 16.5523 11.5523 17 11 17H8C7.44772 17 7 16.5523 7 16Z" fill="#1E1E1E"/>
</svg>
