<svg width="24" height="24" viewBox="0 0 24 24" fill="none" xmlns="http://www.w3.org/2000/svg">
<path d="M4 7C4 6.44772 4.44772 6 5 6C5.55228 6 6 6.44772 6 7C6 7.55228 5.55228 8 5 8C4.44772 8 4 7.55228 4 7ZM4 12C4 11.4477 4.44772 11 5 11C5.55228 11 6 11.4477 6 12C6 12.5523 5.55228 13 5 13C4.44772 13 4 12.5523 4 12ZM4 17C4 16.4477 4.44772 16 5 16C5.55228 16 6 16.4477 6 17C6 17.5523 5.55228 18 5 18C4.44772 18 4 17.5523 4 17ZM19 8C19.5523 8 20 7.55228 20 7C20 6.44772 19.5523 6 19 6H9.023C8.47072 6 8.023 6.44772 8.023 7C8.023 7.55228 8.47072 8 9.023 8H18.8H19ZM8 12C8 11.4477 8.44772 11 9 11H19C19.5523 11 20 11.4477 20 12C20 12.5523 19.5523 13 19 13H9C8.44771 13 8 12.5523 8 12ZM8 17C8 16.4477 8.44772 16 9 16H19C19.5523 16 20 16.4477 20 17C20 17.5523 19.5523 18 19 18H9C8.44771 18 8 17.5523 8 17Z" fill="#1E1E1E"/>
</svg>
