<svg width="24" height="24" viewBox="0 0 24 24" fill="none" xmlns="http://www.w3.org/2000/svg">
<path fill-rule="evenodd" clip-rule="evenodd" d="M12 22C17.5228 22 22 17.5228 22 12C22 6.47715 17.5228 2 12 2C6.47715 2 2 6.47715 2 12C2 17.5228 6.47715 22 12 22ZM8.65027 12.6521L10.5921 14.7114L16.3497 8.6057C16.6596 8.27709 17.1822 8.27709 17.4921 8.6057C17.7773 8.90815 17.7773 9.38049 17.4921 9.68294L11.3197 16.2285C10.925 16.6471 10.2593 16.6471 9.86459 16.2285L7.50791 13.7293C7.22271 13.4269 7.22271 12.9545 7.50791 12.6521C7.8178 12.3235 8.34038 12.3235 8.65027 12.6521Z" fill="#598022"/>
</svg>
