<svg width="24" height="24" viewBox="0 0 24 24" fill="none" xmlns="http://www.w3.org/2000/svg">
<path d="M7.37498 16.781L8.62498 15.219L4.60098 12L8.62498 8.78098L7.37498 7.21898L2.37498 11.219C2.25783 11.3127 2.16325 11.4315 2.09825 11.5667C2.03326 11.7019 1.99951 11.85 1.99951 12C1.99951 12.15 2.03326 12.2981 2.09825 12.4333C2.16325 12.5685 2.25783 12.6873 2.37498 12.781L7.37498 16.781ZM16.625 7.21898L15.375 8.78098L19.399 12L15.375 15.219L16.625 16.781L21.625 12.781C21.7421 12.6873 21.8367 12.5685 21.9017 12.4333C21.9667 12.2981 22.0005 12.15 22.0005 12C22.0005 11.85 21.9667 11.7019 21.9017 11.5667C21.8367 11.4315 21.7421 11.3127 21.625 11.219L16.625 7.21898ZM13.9995 2.99898C14.5386 3.11879 14.8789 3.65304 14.7591 4.19217L11.1929 20.2398C11.0731 20.7789 10.5386 21.1188 9.99948 20.999C9.46035 20.8792 9.1201 20.3449 9.23991 19.8058L12.8061 3.75817C12.9259 3.21904 13.4603 2.87918 13.9995 2.99898Z" fill="#1E1E1E"/>
</svg>
