<svg width="24" height="24" viewBox="0 0 24 24" fill="none" xmlns="http://www.w3.org/2000/svg">
<path d="M20 2H4C2.897 2 2 2.897 2 4V16C2 17.103 2.897 18 4 18H7V20.0006C7 20.778 7.84805 21.2581 8.51458 20.8581L13.277 18H20C21.103 18 22 17.103 22 16V4C22 2.897 21.103 2 20 2ZM20 16H12.723L9 18.233V16H4V4H20V16Z" fill="#1E1E1E"/>
<path d="M7 8C7 7.44772 7.44772 7 8 7H16C16.5523 7 17 7.44772 17 8C17 8.55228 16.5523 9 16 9H8C7.44772 9 7 8.55228 7 8ZM7 12C7 11.4477 7.44772 11 8 11H13C13.5523 11 14 11.4477 14 12C14 12.5523 13.5523 13 13 13H8C7.44772 13 7 12.5523 7 12Z" fill="#1E1E1E"/>
</svg>
