<svg width="24" height="24" viewBox="0 0 24 24" fill="none" xmlns="http://www.w3.org/2000/svg">
<path d="M19.937 8.68C19.926 8.648 19.917 8.617 19.904 8.586C19.8566 8.47747 19.7902 8.37825 19.708 8.293L13.708 2.293C13.6228 2.21078 13.5235 2.14441 13.415 2.097C13.385 2.083 13.353 2.075 13.321 2.064C13.2373 2.03553 13.1502 2.01837 13.062 2.013C13.04 2.011 13.021 2 13 2H6C4.897 2 4 2.897 4 4V20C4 21.103 4.897 22 6 22H18C19.103 22 20 21.103 20 20V9C20 8.979 19.989 8.96 19.987 8.938C19.9819 8.85016 19.9651 8.7634 19.937 8.68ZM16.586 8H14V5.414L16.586 8ZM6 20V4H12V9C12 9.26522 12.1054 9.51957 12.2929 9.70711C12.4804 9.89464 12.7348 10 13 10H18L18.002 20H6Z" fill="#1E1E1E"/>
</svg>
