<svg width="24" height="24" viewBox="0 0 24 24" fill="none" xmlns="http://www.w3.org/2000/svg">
<path d="M7 17.013L11.413 16.998L21.045 7.45802C21.423 7.08003 21.631 6.57802 21.631 6.04402C21.631 5.51002 21.423 5.00802 21.045 4.63002L19.459 3.04402C18.703 2.28802 17.384 2.29202 16.634 3.04102L7 12.583V17.013ZM18.045 4.45802L19.634 6.04102L18.037 7.62302L16.451 6.03802L18.045 4.45802ZM9 13.417L15.03 7.44402L16.616 9.03002L10.587 15.001L9 15.006V13.417Z" fill="#1E1E1E"/>
<path d="M5 21H19C20.103 21 21 20.103 21 19V10.332L19 12.332V19H8.158C8.132 19 8.105 19.01 8.079 19.01C8.046 19.01 8.013 19.001 7.979 19H5V5H11.847L13.847 3H5C3.897 3 3 3.897 3 5V19C3 20.103 3.897 21 5 21Z" fill="#1E1E1E"/>
</svg>
