<svg width="24" height="24" viewBox="0 0 24 24" fill="none" xmlns="http://www.w3.org/2000/svg">
<path d="M2.76012 20.2C3.03448 20.4904 3.36921 20.717 3.7407 20.8639C4.11219 21.0107 4.51139 21.0743 4.91012 21.05C6.07924 20.9888 7.22464 20.6965 8.28012 20.19C9.86191 20.8989 11.6147 21.1359 13.328 20.8725C15.0412 20.6092 16.6419 19.8567 17.9378 18.7055C19.2337 17.5543 20.1696 16.0534 20.633 14.3831C21.0964 12.7129 21.0676 10.9443 20.5501 9.29004C21.8601 7.06004 22.3001 5.03004 21.2201 3.81004C20.9062 3.44593 20.5077 3.16437 20.0596 2.99002C19.6116 2.81568 19.1276 2.75388 18.6501 2.81004C17.7037 2.95441 16.8187 3.36743 16.1001 4.00004C14.487 3.18045 12.6643 2.8661 10.8699 3.09801C9.07543 3.32991 7.39254 4.0973 6.04079 5.30006C4.68904 6.50281 3.7312 8.08507 3.29225 9.8404C2.8533 11.5957 2.95362 13.4426 3.58012 15.14C2.52012 16.35 1.53012 18.82 2.76012 20.2ZM4.26012 18.88C4.04012 18.63 4.26012 17.81 4.63012 17.12C5.07765 17.7642 5.60521 18.3489 6.20012 18.86C5.17012 19.16 4.49012 19.14 4.26012 18.88ZM18.7701 13.71C18.3162 15.5058 17.1691 17.0484 15.5801 18C14.4964 18.6445 13.2609 18.9896 12.0001 19C11.5836 18.9969 11.1683 18.9534 10.7601 18.87C12.329 17.9079 13.8083 16.8069 15.1801 15.58C16.5613 14.3604 17.8329 13.022 18.9801 11.58C19.0217 12.2967 18.9508 13.0153 18.7701 13.71ZM18.8601 4.82004C19.0204 4.79365 19.1848 4.80926 19.3373 4.86534C19.4898 4.92143 19.6251 5.01607 19.7301 5.14004C19.9601 5.40004 19.8901 6.08004 19.4701 7.07004C19.0191 6.38076 18.4776 5.75517 17.8601 5.21004C18.161 5.0086 18.5023 4.87549 18.8601 4.82004ZM5.22012 10.31C5.43941 9.41597 5.83439 8.57446 6.38205 7.83451C6.92971 7.09457 7.61912 6.47097 8.41012 6.00004C9.49444 5.34844 10.7351 5.00286 12.0001 5.00004C13.2116 4.99169 14.4038 5.30243 15.4571 5.90102C16.5103 6.49961 17.3874 7.36496 18.0001 8.41004C18.1325 8.62135 18.2495 8.84192 18.3501 9.07004C17.064 10.9144 15.5561 12.5937 13.8601 14.07C12.1932 15.6031 10.3424 16.9232 8.35012 18C7.08396 17.2222 6.09818 16.0617 5.53547 14.6863C4.97275 13.311 4.86231 11.7923 5.22012 10.35V10.31Z" fill="#1E1E1E"/>
</svg>
