<svg width="24" height="24" viewBox="0 0 24 24" fill="none" xmlns="http://www.w3.org/2000/svg">
<path d="M11 15C11 15.5523 11.4477 16 12 16C12.5523 16 13 15.5523 13 15V7H14.9597C15.3789 7 15.612 6.51503 15.3501 6.18765L12.3904 2.48804C12.1903 2.23784 11.8097 2.23784 11.6096 2.48804L8.64988 6.18765C8.38797 6.51503 8.62106 7 9.04031 7H11V15Z" fill="#1E1E1E"/>
<path d="M5 22H19C20.103 22 21 21.103 21 20V11C21 9.897 20.103 9 19 9H16C15.4477 9 15 9.44772 15 10C15 10.5523 15.4477 11 16 11H19V20H5V11H8C8.55228 11 9 10.5523 9 10C9 9.44772 8.55228 9 8 9H5C3.897 9 3 9.897 3 11V20C3 21.103 3.897 22 5 22Z" fill="#1E1E1E"/>
</svg>
