<svg width="24" height="24" viewBox="0 0 24 24" fill="none" xmlns="http://www.w3.org/2000/svg">
<g clip-path="url(#clip0_810_8049)">
<path fill-rule="evenodd" clip-rule="evenodd" d="M4.5809 6.10616C4.75901 5.69057 5.19385 5.44619 5.64146 5.51014L8.31536 5.89213L9.05144 3.68388C9.18755 3.27554 9.56969 3.00011 10.0001 3.00011L14.0001 3.00011C14.4306 3.00011 14.8127 3.27554 14.9488 3.68388L15.6849 5.89212L18.3586 5.51012C18.8062 5.44617 19.2411 5.69054 19.4192 6.10615L20.9192 9.60615C21.0802 9.98198 20.9963 10.418 20.7072 10.7071L19.4143 12.0001L20.7071 13.293C20.9639 13.5498 21.0613 13.9256 20.9616 14.2748L19.9616 17.7748C19.8262 18.2489 19.3654 18.5535 18.8761 18.4923L15.6896 18.0941L14.9488 20.3163C14.8127 20.7247 14.4306 21.0001 14.0001 21.0001L10.0001 21.0001C9.56969 21.0001 9.18755 20.7247 9.05144 20.3163L8.31535 18.1081L5.64149 18.49C5.19388 18.554 4.75906 18.3096 4.58094 17.894L3.08089 14.394C2.9198 14.0181 3.00378 13.5821 3.29294 13.2929L4.58587 12.0001L3.29293 10.7072C3.00378 10.418 2.9198 9.98199 3.08088 9.60614L4.5809 6.10616ZM5.18587 9.77169L6.70722 11.293C6.89477 11.4805 7.00013 11.7349 7.00012 12.0001C7.00012 12.2653 6.89475 12.5197 6.70721 12.7072L5.18588 14.2285L6.11733 16.4018L8.85871 16.0102C9.33714 15.9418 9.79598 16.2254 9.94881 16.6839L10.7209 19.0001L13.2794 19.0001L14.0514 16.6839C14.2022 16.2317 14.6512 15.9487 15.1241 16.0078L18.2739 16.4015L18.8769 14.2911L17.293 12.7072C16.9025 12.3167 16.9025 11.6835 17.293 11.293L18.8142 9.77172L17.8828 7.59841L15.1416 7.99005C14.6631 8.05841 14.2043 7.77483 14.0514 7.31633L13.2794 5.00011L10.7209 5.00011L9.94881 7.31633C9.79598 7.77482 9.33713 8.0584 8.8587 7.99006L6.11729 7.59842L5.18587 9.77169Z" fill="#1E1E1E"/>
<path fill-rule="evenodd" clip-rule="evenodd" d="M12 13C12.5523 13 13 12.5523 13 12C13 11.4477 12.5523 11 12 11C11.4477 11 11 11.4477 11 12C11 12.5523 11.4477 13 12 13ZM12 15C13.6569 15 15 13.6569 15 12C15 10.3431 13.6569 9 12 9C10.3431 9 9 10.3431 9 12C9 13.6569 10.3431 15 12 15Z" fill="#1E1E1E"/>
</g>
<defs>
<clipPath id="clip0_810_8049">
<rect width="24" height="24" fill="white"/>
</clipPath>
</defs>
</svg>
