<svg width="24" height="24" viewBox="0 0 24 24" fill="none" xmlns="http://www.w3.org/2000/svg">
<path d="M4.22196 19.778C4.68584 20.2425 5.23693 20.6108 5.84358 20.8617C6.45023 21.1126 7.10048 21.2411 7.75696 21.24C8.41359 21.2411 9.06398 21.1125 9.67079 20.8617C10.2776 20.6108 10.8289 20.2425 11.293 19.778L13.4142 17.656C13.8046 17.2655 13.8045 16.6325 13.4141 16.2421C13.0236 15.8516 12.3904 15.8516 12 16.2422L9.87896 18.364C9.31543 18.925 8.55263 19.2399 7.75746 19.2399C6.96229 19.2399 6.19949 18.925 5.63596 18.364C5.07447 17.8007 4.75917 17.0378 4.75917 16.2425C4.75917 15.4471 5.07447 14.6842 5.63596 14.121L7.75771 12C8.1483 11.6095 8.14835 10.9764 7.75784 10.5858C7.36742 10.1954 6.73445 10.1954 6.34396 10.5857L4.22196 12.707C3.28577 13.6454 2.76001 14.9169 2.76001 16.2425C2.76001 17.568 3.28577 18.8395 4.22196 19.778ZM19.778 11.293C20.7137 10.3542 21.2391 9.08288 21.2391 7.75746C21.2391 6.43204 20.7137 5.16068 19.778 4.22196C18.8395 3.28577 17.568 2.76001 16.2425 2.76001C14.9169 2.76001 13.6454 3.28577 12.707 4.22196L10.5857 6.34396C10.1954 6.73445 10.1954 7.36742 10.5858 7.75784C10.9764 8.14835 11.6095 8.1483 12 7.75771L14.121 5.63596C14.6845 5.07495 15.4473 4.75999 16.2425 4.75999C17.0376 4.75999 17.8004 5.07495 18.364 5.63596C18.9255 6.19923 19.2408 6.96213 19.2408 7.75746C19.2408 8.55279 18.9255 9.31569 18.364 9.87896L16.2422 12C15.8516 12.3904 15.8516 13.0236 16.2421 13.4141C16.6325 13.8045 17.2655 13.8046 17.656 13.4142L19.778 11.293Z" fill="#1E1E1E"/>
<path d="M9.17093 16.2433C8.7805 16.6337 8.14741 16.6336 7.75686 16.2433C7.36609 15.8528 7.36585 15.2193 7.75651 14.8287L14.8287 7.75732C15.2193 7.36674 15.8528 7.36701 16.2433 7.75776C16.6336 8.14834 16.6336 8.78149 16.2431 9.17191L9.17093 16.2433Z" fill="#1E1E1E"/>
</svg>
