<svg width="24" height="24" viewBox="0 0 24 24" fill="none" xmlns="http://www.w3.org/2000/svg">
<path d="M10 11C9.44772 11 9 11.4477 9 12C9 12.5523 9.44771 13 10 13H16.7143V14.8494C16.7143 15.2866 17.2358 15.5132 17.5554 15.2149L20.6084 12.3655C20.8202 12.1679 20.8202 11.8321 20.6084 11.6345L17.5554 8.78508C17.2358 8.48678 16.7143 8.71342 16.7143 9.15061V11H10Z" fill="#1E1E1E"/>
<path d="M4 5L4 19C4 20.103 4.828 21 5.84615 21H14.1538C15.172 21 16 20.103 16 19V15.9231C16 15.4133 15.5867 15 15.0769 15C14.5671 15 14.1538 15.4133 14.1538 15.9231V19H5.84615L5.84615 5H14.1538V8.07692C14.1538 8.58672 14.5671 9 15.0769 9C15.5867 9 16 8.58672 16 8.07692V5C16 3.897 15.172 3 14.1538 3L5.84615 3C4.828 3 4 3.897 4 5Z" fill="#1E1E1E"/>
</svg>
