<svg width="24" height="24" viewBox="0 0 24 24" fill="none" xmlns="http://www.w3.org/2000/svg">
<path d="M5.282 12.064C4.854 12.392 4.562 12.673 4.407 12.915C4.252 13.155 4.158 13.413 4.128 13.683H6.807V12.935H5.413C5.494 12.854 5.565 12.784 5.625 12.734C5.687 12.684 5.807 12.592 5.986 12.464C6.289 12.246 6.497 12.044 6.612 11.86C6.728 11.674 6.785 11.485 6.785 11.282C6.78773 11.1 6.73507 10.9214 6.634 10.77C6.53478 10.6169 6.39098 10.4979 6.222 10.429C6.048 10.353 5.803 10.318 5.489 10.318C5.189 10.318 4.952 10.356 4.783 10.432C4.62023 10.5026 4.48231 10.6203 4.387 10.77C4.293 10.913 4.228 11.116 4.193 11.374L5.087 11.45C5.112 11.262 5.161 11.133 5.234 11.056C5.2706 11.0198 5.31426 10.9916 5.36226 10.973C5.41026 10.9544 5.46157 10.9459 5.513 10.948C5.623 10.948 5.713 10.983 5.785 11.056C5.82007 11.089 5.8478 11.1291 5.8664 11.1735C5.88501 11.218 5.89407 11.2658 5.893 11.314C5.88683 11.4214 5.84928 11.5247 5.785 11.611C5.711 11.713 5.544 11.865 5.282 12.064ZM5.337 18.45C5.23288 18.4533 5.13164 18.4156 5.055 18.345C4.981 18.275 4.927 18.15 4.893 17.967L4 18.085C4.059 18.289 4.142 18.457 4.251 18.591C4.36 18.724 4.499 18.826 4.668 18.897C4.836 18.966 5.067 19 5.36 19C5.66 19 5.901 18.953 6.085 18.86C6.26334 18.7709 6.41099 18.6306 6.509 18.457C6.607 18.282 6.655 18.103 6.655 17.913C6.65867 17.7767 6.62843 17.6417 6.567 17.52C6.50793 17.413 6.42214 17.323 6.318 17.259C6.22878 17.2081 6.13235 17.171 6.032 17.149C6.16975 17.0791 6.28823 16.9764 6.377 16.85C6.45255 16.7367 6.49195 16.6032 6.49 16.467C6.49185 16.3528 6.46748 16.2397 6.41877 16.1363C6.37005 16.033 6.29829 15.9422 6.209 15.871C6.022 15.712 5.719 15.633 5.3 15.633C4.935 15.633 4.652 15.705 4.453 15.852C4.253 15.995 4.119 16.205 4.049 16.478L4.893 16.629C4.916 16.467 4.96 16.355 5.026 16.291C5.092 16.227 5.177 16.193 5.283 16.193C5.32708 16.191 5.37112 16.1978 5.41252 16.2131C5.45391 16.2284 5.49182 16.2518 5.524 16.282C5.583 16.342 5.611 16.421 5.611 16.52C5.611 16.624 5.573 16.713 5.494 16.79C5.415 16.867 5.317 16.902 5.201 16.902C5.16214 16.9008 5.12339 16.8972 5.085 16.891L5.04 17.54C5.13348 17.5088 5.23064 17.49 5.329 17.484C5.461 17.484 5.566 17.525 5.642 17.61C5.719 17.692 5.757 17.809 5.757 17.962C5.757 18.108 5.717 18.228 5.638 18.316C5.60047 18.3587 5.55414 18.3928 5.50218 18.416C5.45022 18.4391 5.39387 18.4507 5.337 18.45ZM6.285 8.367V5H5.546C5.45566 5.20174 5.32098 5.38051 5.152 5.523C4.984 5.665 4.748 5.785 4.444 5.888V6.642C4.78585 6.5477 5.10474 6.38434 5.381 6.162V8.368H6.285V8.367ZM9 7C9 6.44772 9.44772 6 10 6H19C19.5523 6 20 6.44772 20 7C20 7.55228 19.5523 8 19 8H10C9.44771 8 9 7.55228 9 7ZM9 12C9 11.4477 9.44772 11 10 11H19C19.5523 11 20 11.4477 20 12C20 12.5523 19.5523 13 19 13H10C9.44771 13 9 12.5523 9 12ZM9 17C9 16.4477 9.44772 16 10 16H19C19.5523 16 20 16.4477 20 17C20 17.5523 19.5523 18 19 18H10C9.44771 18 9 17.5523 9 17Z" fill="#1E1E1E"/>
</svg>
