<svg width="24" height="24" viewBox="0 0 24 24" fill="none" xmlns="http://www.w3.org/2000/svg">
<path d="M3.99989 21C4.0796 21.0097 4.16018 21.0097 4.23989 21L8.23989 20C8.41734 19.9578 8.57987 19.8679 8.70989 19.74L20.9999 7.41003C21.3724 7.0353 21.5815 6.5284 21.5815 6.00003C21.5815 5.47165 21.3724 4.96475 20.9999 4.59003L19.4199 3.00003C19.2341 2.81407 19.0136 2.66655 18.7708 2.56591C18.528 2.46526 18.2677 2.41345 18.0049 2.41345C17.7421 2.41345 17.4818 2.46526 17.239 2.56591C16.9962 2.66655 16.7756 2.81407 16.5899 3.00003L4.29989 15.29C4.17068 15.4206 4.07764 15.5826 4.02989 15.76L3.02989 19.76C2.99395 19.8894 2.98444 20.0247 3.00192 20.1579C3.0194 20.291 3.06352 20.4193 3.13165 20.535C3.19978 20.6507 3.29052 20.7515 3.39846 20.8314C3.50639 20.9113 3.62931 20.9687 3.75989 21C3.8396 21.0097 3.92018 21.0097 3.99989 21ZM17.9999 4.41003L19.5899 6.00003L17.9999 7.59003L16.4199 6.00003L17.9999 4.41003ZM5.90989 16.51L14.9999 7.41003L16.5899 9.00003L7.48989 18.1L5.37989 18.62L5.90989 16.51Z" fill="#1E1E1E"/>
</svg>
