<svg width="24" height="24" viewBox="0 0 24 24" fill="none" xmlns="http://www.w3.org/2000/svg">
<path d="M3 7C3 7.55228 3.44772 8 4 8H5V13C5 15.206 6.794 17 9 17H11V21C11 21.5523 11.4477 22 12 22C12.5523 22 13 21.5523 13 21V17H15C17.206 17 19 15.206 19 13V8H20C20.5523 8 21 7.55228 21 7C21 6.44772 20.5523 6 20 6H4C3.44772 6 3 6.44772 3 7ZM7 8H17V13C17 14.103 16.103 15 15 15H9C7.897 15 7 14.103 7 13V8ZM7 3C7 2.44772 7.44772 2 8 2C8.55228 2 9 2.44772 9 3V5C9 5.55228 8.55228 6 8 6C7.44772 6 7 5.55228 7 5V3ZM15 3C15 2.44772 15.4477 2 16 2C16.5523 2 17 2.44772 17 3V5C17 5.55228 16.5523 6 16 6C15.4477 6 15 5.55228 15 5V3Z" fill="#1E1E1E"/>
</svg>
