<svg width="24" height="24" viewBox="0 0 24 24" fill="none" xmlns="http://www.w3.org/2000/svg">
<path d="M8.67411 7.07893C8.85568 6.70663 8.70107 6.25764 8.32877 6.07607C7.95647 5.8945 7.50748 6.04911 7.32591 6.42141L7.32521 6.42283L7.32337 6.42661L7.31633 6.44109L7.28932 6.49681C7.26575 6.5455 7.23133 6.61682 7.1876 6.70796C7.10015 6.89023 6.97542 7.15188 6.82583 7.47041C6.52684 8.10704 6.12759 8.97287 5.7278 9.8872C5.32887 10.7996 4.92531 11.7695 4.62013 12.6119C4.46769 13.0327 4.33627 13.4312 4.24206 13.7804C4.18966 13.9746 4.14335 14.1726 4.11378 14.3616C4.03953 14.6454 4 14.9431 4 15.2502C4 17.1832 5.567 18.7502 7.5 18.7502C9.433 18.7502 11 17.1832 11 15.2502C11 13.3172 9.433 11.7502 7.5 11.7502C7.15507 11.7502 6.8218 11.8001 6.507 11.893C6.69531 11.4312 6.89811 10.9548 7.10216 10.4881C7.49489 9.58997 7.88815 8.73705 8.18355 8.10805C8.33115 7.79377 8.45408 7.53589 8.53999 7.35683C8.58294 7.26731 8.61663 7.19752 8.6395 7.15026L8.6655 7.09664L8.67205 7.08316L8.67365 7.07987L8.67411 7.07893Z" fill="#1E1E1E"/>
<path d="M17.6741 7.07893C17.8557 6.70663 17.7011 6.25764 17.3288 6.07607C16.9565 5.8945 16.5075 6.04911 16.3259 6.42141L16.3252 6.42283L16.3234 6.42661L16.3163 6.44109L16.2893 6.49681C16.2658 6.5455 16.2313 6.61682 16.1876 6.70796C16.1001 6.89023 15.9754 7.15188 15.8258 7.47041C15.5268 8.10704 15.1276 8.97287 14.7278 9.8872C14.3289 10.7996 13.9253 11.7695 13.6201 12.6119C13.4677 13.0327 13.3363 13.4312 13.2421 13.7804C13.1897 13.9746 13.1433 14.1726 13.1138 14.3616C13.0395 14.6454 13 14.9431 13 15.2502C13 17.1832 14.567 18.7502 16.5 18.7502C18.433 18.7502 20 17.1832 20 15.2502C20 13.3172 18.433 11.7502 16.5 11.7502C16.1551 11.7502 15.8218 11.8001 15.507 11.893C15.6953 11.4312 15.8981 10.9548 16.1022 10.4881C16.4949 9.58997 16.8882 8.73705 17.1836 8.10805C17.3312 7.79377 17.4541 7.53589 17.54 7.35683C17.5829 7.26731 17.6166 7.19752 17.6395 7.15026L17.6655 7.09664L17.6721 7.08316L17.6737 7.07987L17.6741 7.07893Z" fill="#1E1E1E"/>
</svg>
