<svg width="24" height="24" viewBox="0 0 24 24" fill="none" xmlns="http://www.w3.org/2000/svg">
<path d="M19 7C19 6.73478 18.8946 6.48043 18.7071 6.29289C18.5196 6.10536 18.2652 6 18 6H11C10.4477 6 10 6.44772 10 7C10 7.55228 10.4477 8 11 8H17V13H15.0353C14.6169 13 14.3836 13.4832 14.6437 13.8109L17.7747 17.7552C17.8743 17.8807 18.0646 17.8814 18.1651 17.7567L21.3439 13.8138C21.6076 13.4867 21.3748 13 20.9546 13H19V7ZM5 18C5 18.2652 5.10536 18.5196 5.29289 18.7071C5.48043 18.8946 5.73478 19 6 19H13C13.5523 19 14 18.5523 14 18C14 17.4477 13.5523 17 13 17H7V12H8.95969C9.37894 12 9.61203 11.515 9.35012 11.1877L6.19522 7.24402C6.09514 7.11892 5.90486 7.11892 5.80478 7.24402L2.64988 11.1877C2.38797 11.515 2.62106 12 3.04031 12H5V18Z" fill="#1E1E1E"/>
</svg>
