<svg width="24" height="24" viewBox="0 0 24 24" fill="none" xmlns="http://www.w3.org/2000/svg">
<path d="M20.9201 2.38C19.7974 2.12857 18.6506 2.00114 17.5001 2C16.4136 1.93101 15.3241 2.0775 14.2944 2.43103C13.2647 2.78456 12.3151 3.33816 11.5001 4.06C10.4267 5.13333 9.36341 6.20333 8.31008 7.27C7.10008 7.14 4.23008 7.07 2.31008 9.01C2.12383 9.19736 2.01929 9.45081 2.01929 9.715C2.01929 9.97918 2.12383 10.2326 2.31008 10.42L13.6101 21.74C13.7974 21.9262 14.0509 22.0308 14.3151 22.0308C14.5793 22.0308 14.8327 21.9262 15.0201 21.74C16.9701 19.74 16.9101 16.92 16.7901 15.74L20.0001 12.54C23.1901 9.35 21.7401 3.36 21.6801 3.11C21.6339 2.92963 21.5383 2.76574 21.404 2.63677C21.2698 2.50779 21.1022 2.41887 20.9201 2.38ZM18.5601 11.13L15.0001 14.67C14.8848 14.7864 14.7999 14.9294 14.7528 15.0863C14.7057 15.2432 14.6979 15.4093 14.7301 15.57C14.9461 16.9078 14.7581 18.2796 14.1901 19.51L4.52008 9.82C5.76993 9.24477 7.16709 9.07012 8.52008 9.32C8.68016 9.34084 8.8429 9.32262 8.9944 9.2669C9.1459 9.21117 9.28166 9.1196 9.39008 9C9.39008 9 10.7901 7.55 12.9001 5.44C14.1975 4.39811 15.8402 3.88389 17.5001 4C18.2809 4.00387 19.0601 4.07075 19.8301 4.2C20.0701 5.63 20.4501 9.24 18.5601 11.13Z" fill="#1E1E1E"/>
<path d="M15.73 10.3C16.8345 10.3 17.73 9.40462 17.73 8.30005C17.73 7.19548 16.8345 6.30005 15.73 6.30005C14.6254 6.30005 13.73 7.19548 13.73 8.30005C13.73 9.40462 14.6254 10.3 15.73 10.3Z" fill="#1E1E1E"/>
<path d="M5 16C3 17 3 21 3 21C4.85107 20.9472 6.62315 20.2384 8 19L5 16Z" fill="#1E1E1E"/>
</svg>
