<svg width="24" height="24" viewBox="0 0 24 24" fill="none" xmlns="http://www.w3.org/2000/svg">
<path d="M18 20.001C18.5523 20.001 19.0035 19.5519 18.967 19.0008C18.4726 11.524 12.4761 5.52749 5.00018 5.03298C4.4491 4.99653 4 5.44772 4 6C4 6.55228 4.44928 6.99598 4.99996 7.03807C11.3726 7.52515 16.4749 12.6276 16.9619 19.001C17.004 19.5517 17.4477 20.001 18 20.001Z" fill="#1E1E1E"/>
<path d="M11.9381 19.003C12.0066 19.551 12.4477 20.001 13 20.001C13.5523 20.001 14.0053 19.552 13.9505 19.0024C13.4807 14.2831 9.71709 10.5194 4.99858 10.0495C4.44901 9.99473 4 10.4477 4 11C4 11.5523 4.44996 11.9934 4.99798 12.0619C8.61286 12.5138 11.4863 15.3874 11.9381 19.003Z" fill="#1E1E1E"/>
<path d="M6 20C7.10457 20 8 19.1046 8 18C8 16.8954 7.10457 16 6 16C4.89543 16 4 16.8954 4 18C4 19.1046 4.89543 20 6 20Z" fill="#1E1E1E"/>
</svg>
