<svg width="24" height="24" viewBox="0 0 24 24" fill="none" xmlns="http://www.w3.org/2000/svg">
<path d="M21.426 11.095L4.42601 3.095C4.25484 3.01401 4.06418 2.98334 3.87625 3.00656C3.68833 3.02978 3.51087 3.10594 3.36456 3.22615C3.21825 3.34636 3.10912 3.50568 3.04989 3.68553C2.99066 3.86539 2.98376 4.05837 3.03001 4.242L4.96901 12L3.03001 19.758C2.98333 19.9417 2.98992 20.1349 3.04902 20.315C3.10811 20.495 3.21726 20.6546 3.3637 20.7749C3.51014 20.8952 3.68782 20.9713 3.87594 20.9944C4.06406 21.0174 4.25486 20.9864 4.42601 20.905L21.426 12.905C21.5978 12.8242 21.7431 12.6963 21.8448 12.536C21.9466 12.3757 22.0006 12.1898 22.0006 12C22.0006 11.8102 21.9466 11.6243 21.8448 11.464C21.7431 11.3037 21.5978 11.1758 21.426 11.095ZM5.48101 18.197L6.32001 14.84L11.1056 12.4472C11.4741 12.2629 11.4741 11.737 11.1056 11.5528L6.32001 9.16L5.48101 5.803L18.651 12L5.48101 18.197Z" fill="#1E1E1E"/>
</svg>
