<svg width="24" height="24" viewBox="0 0 24 24" fill="none" xmlns="http://www.w3.org/2000/svg">
<path d="M20 12C20 11.4477 19.5523 11 19 11H12C8 11 8 9.184 8 8.5C8 7.882 8 6 12 6C14.0707 6 14.714 6.91774 14.9126 7.53171C14.9967 7.79152 15.2191 8.01093 15.4921 8.00711L16 8H16.5C16.7761 8 17.0023 7.77563 16.9595 7.50284C16.7344 6.07132 15.5193 4 12 4C6.584 4 6 7.147 6 8.5C6 9.228 6.148 10.167 6.736 11H5C4.44772 11 4 11.4477 4 12C4 12.5523 4.44772 13 5 13H19C19.5523 13 20 12.5523 20 12ZM12 18C9.25576 18 8.39386 17.0499 8.12325 16.4545C8.01333 16.2126 7.79195 16 7.5263 16H6.5C6.22386 16 6.00862 16.2244 6.0678 16.4941C6.30259 17.5643 7.34851 20 12 20C17.221 20 18 17.181 18 15.5C18 15.4836 17.9999 15.4668 17.9997 15.4498C17.9962 15.1937 17.7774 15 17.5212 15H16.4677C16.2045 15 16 15.2368 16 15.5C16 16.184 16 18 12 18Z" fill="#1E1E1E"/>
</svg>
