<svg width="24" height="24" viewBox="0 0 24 24" fill="none" xmlns="http://www.w3.org/2000/svg">
<path d="M19.8899 10.105C19.6738 9.59567 19.4096 9.10813 19.1009 8.649L17.4429 9.768C17.9207 10.4783 18.256 11.2748 18.4299 12.113C18.6072 12.9868 18.6072 13.8872 18.4299 14.761C18.3431 15.1831 18.2144 15.5954 18.0459 15.992C17.8821 16.3817 17.6801 16.7541 17.4429 17.104C16.9689 17.803 16.3662 18.4054 15.6669 18.879C14.9572 19.3566 14.1614 19.6918 13.3239 19.866C12.4506 20.041 11.5512 20.041 10.6779 19.866C9.42097 19.6078 8.26757 18.986 7.36091 18.078C6.762 17.4787 6.28398 16.7699 5.95291 15.99C5.78586 15.5934 5.65792 15.1815 5.57091 14.76C5.30693 13.4586 5.44001 12.1079 5.95291 10.883C6.28271 10.1033 6.76053 9.39489 7.35991 8.797C7.95902 8.19911 8.66712 7.7215 9.44591 7.39C9.84091 7.223 10.2559 7.094 10.6759 7.008C10.7829 6.986 10.8919 6.976 10.9999 6.959V10L15.9999 6L10.9999 2V4.938C10.7568 4.96491 10.5149 5.00195 10.2749 5.049C9.17906 5.27356 8.13823 5.71191 7.21191 6.339C5.56639 7.44902 4.35744 9.09605 3.79165 10.9986C3.22586 12.9012 3.33836 14.9412 4.10991 16.77C4.53945 17.7882 5.16266 18.7134 5.94491 19.494C6.7261 20.2737 7.64985 20.896 8.66591 21.327C10.2632 22.0028 12.0283 22.1768 13.7269 21.826C15.0866 21.545 16.3577 20.9381 17.431 20.0574C18.5043 19.1767 19.3478 18.0486 19.8889 16.77C20.1089 16.25 20.2779 15.709 20.3889 15.162C20.6208 14.0237 20.6208 12.8503 20.3889 11.712C20.275 11.1614 20.1079 10.6233 19.8899 10.105Z" fill="#1E1E1E"/>
</svg>
