<svg width="24" height="24" viewBox="0 0 24 24" fill="none" xmlns="http://www.w3.org/2000/svg">
<path d="M12 9C11.206 9.00524 10.4459 9.32299 9.88447 9.88447C9.32299 10.4459 9.00524 11.206 9 12C9 13.642 10.358 15 12 15C13.641 15 15 13.642 15 12C15 10.359 13.641 9 12 9Z" fill="#1E1E1E"/>
<path d="M12 5C4.36704 5 2.07304 11.617 2.05204 11.684L1.94604 12L2.05105 12.316C2.07305 12.383 4.36704 19 12 19C19.633 19 21.927 12.383 21.948 12.316L22.054 12L21.949 11.684C21.927 11.617 19.633 5 12 5ZM12 17C6.64904 17 4.57604 13.154 4.07404 12C4.57804 10.842 6.65204 7 12 7C17.351 7 19.424 10.846 19.926 12C19.422 13.158 17.348 17 12 17Z" fill="#1E1E1E"/>
</svg>
